<svg width="158" height="49" viewBox="0 0 158 49" fill="none" xmlns="http://www.w3.org/2000/svg">
<g id="Layer_1" clip-path="url(#clip0_3165_882)">
<path id="Vector" fill-rule="evenodd" clip-rule="evenodd" d="M15.9029 23.6758C15.5998 22.468 15.4291 21.2046 15.4291 19.8986C15.4291 16.9835 16.2358 14.2562 17.6314 11.9216V8.51562H14.0932V21.879L0 8.51989V31.0852H3.51263V17.5853L12.8512 26.497L15.9029 23.6758Z" fill="white"/>
<path id="Vector_2" fill-rule="evenodd" clip-rule="evenodd" d="M12.9066 26.5547L17.6271 31.0618V27.8778C17.3753 27.4553 17.1491 27.0199 16.9357 26.5718L12.9023 26.5547H12.9066Z" fill="white"/>
<path id="Vector_3" fill-rule="evenodd" clip-rule="evenodd" d="M75.8775 11.669H69.693V31.1229H66.1548V11.669H59.9746V8.52344H75.8775V11.669Z" fill="white"/>
<path id="Vector_4" fill-rule="evenodd" clip-rule="evenodd" d="M93.804 31.1229H90.2914V21.2978H81.3199V31.1229H77.8115V8.52344H81.3199V18.1138H90.2914V8.52344H93.804V31.1229Z" fill="white"/>
<path id="Vector_5" fill-rule="evenodd" clip-rule="evenodd" d="M124.918 11.669H118.738V31.1357H115.2V11.669H109.016V8.52344H124.918V11.669Z" fill="white"/>
<path id="Vector_6" fill-rule="evenodd" clip-rule="evenodd" d="M157.936 31.1357H153.945L148.243 23.4831H145.652V31.1357H142.114V8.52344H148.819C151.807 8.52344 153.544 9.73557 154.458 10.777C155.644 12.0873 156.284 13.9183 156.284 16.0182C156.284 18.1181 155.64 19.9192 154.458 21.2295C153.907 21.8356 153.053 22.5398 151.833 22.9666L157.932 31.1357H157.936ZM148.824 20.3119C150.292 20.3119 151.385 19.8851 152.08 19.0912C152.938 18.1778 153.083 16.9017 153.083 16.0139C153.083 15.1262 152.938 13.8244 152.08 12.911C151.385 12.1172 150.288 11.716 148.824 11.716H145.657V20.3119H148.824Z" fill="white"/>
<path id="Vector_7" fill-rule="evenodd" clip-rule="evenodd" d="M102.967 21.8477L102.822 21.7879L102.677 21.7153L102.378 21.5788L102.233 21.5147L102.08 21.4422L101.926 21.3782L101.772 21.3056L101.465 21.169L101.303 21.1093L101.136 21.0367L100.983 20.9642L100.82 20.9001L100.65 20.8276L100.488 20.755L100.325 20.6825L100.172 20.6184L100.005 20.5459L99.8516 20.4648L99.6979 20.3922L99.5443 20.3111L99.3906 20.2301L99.237 20.149L99.0919 20.0679L98.9468 19.9782L98.8016 19.8843L98.6565 19.7947L98.5114 19.7051L98.3706 19.6154L98.234 19.513L98.0889 19.4149L97.9608 19.3167L97.8243 19.2185L97.7005 19.1161L97.5724 19.0094L97.4529 18.8984L97.3377 18.7832L97.2182 18.6637L97.1029 18.5484L96.992 18.4289L96.8853 18.3009L96.7828 18.1771L96.6761 18.0405L96.578 17.9039L96.4841 17.7674L96.3859 17.6351L96.2963 17.4899L96.2152 17.3448L96.1341 17.1997L96.0615 17.0461L95.9975 16.8924L95.9335 16.7302L95.878 16.5552L95.8268 16.3845L95.7798 16.2053L95.7329 16.0217L95.6987 15.8339L95.6731 15.6333L95.6433 15.4327L95.6262 15.2279L95.6091 15.0187L95.6006 14.7925V14.5748V14.3742L95.6091 14.1865L95.6177 13.9944L95.6347 13.8151L95.6518 13.6316L95.6731 13.4609L95.6987 13.2816L95.7244 13.1194L95.7628 12.9444L95.7969 12.7823L95.8439 12.6286L95.8908 12.475L95.942 12.3213L95.989 12.1762L96.053 12.0311L96.117 11.886L96.1768 11.7408L96.2408 11.6085L96.3134 11.4805L96.3944 11.3439L96.467 11.2159L96.5566 11.1006L96.642 10.9726L96.7316 10.8574L96.8213 10.7464L96.9109 10.6311L97.009 10.5202L97.12 10.4135L97.2182 10.311L97.3292 10.2129L97.4444 10.1147L97.5639 10.0165L97.6791 9.92264L97.7986 9.83301L97.9267 9.75192L98.0505 9.67083L98.187 9.58973L98.3236 9.50864L98.4602 9.43608L98.5968 9.36353L98.7419 9.29097L98.8827 9.22695L99.0279 9.16293L99.1815 9.10744L99.3352 9.05622L99.5016 9.00074L99.6553 8.94525L99.8174 8.90257L99.9882 8.85562L100.15 8.80867L100.325 8.77453L100.505 8.74039L100.675 8.70197L100.859 8.67636L101.038 8.64649L101.23 8.62088L101.409 8.60381L101.602 8.58247L101.798 8.56539L101.99 8.54832L102.186 8.53979L102.387 8.53125H102.596H102.797H103.04H103.275L103.509 8.53979L103.744 8.54832L103.979 8.55686L104.205 8.57393L104.431 8.59527L104.657 8.61234L104.884 8.62942L105.11 8.65502L105.328 8.6849L105.554 8.71051L105.771 8.74892L105.989 8.78307L106.198 8.82148L106.416 8.85562L106.625 8.90257L106.821 8.94525L107.022 8.9922L107.086 9.00928V12.3469L107.065 12.3384L106.924 12.2957L106.77 12.2402L106.612 12.1847L106.45 12.142L106.279 12.0866L106.109 12.0396L105.934 11.9969L105.746 11.95L105.562 11.9073L105.374 11.8689L105.195 11.8219L105.003 11.7963L104.803 11.7622L104.615 11.7323L104.414 11.7067L104.226 11.6896L104.026 11.6683L103.825 11.6512L103.62 11.6341L103.42 11.6256L103.211 11.6171H103.001H102.797H102.596L102.404 11.6256L102.216 11.6341L102.033 11.6512L101.853 11.6811L101.683 11.7067L101.508 11.7408L101.345 11.7793L101.192 11.8219L101.038 11.8689L100.884 11.9244L100.748 11.9884L100.603 12.061L100.479 12.1292L100.351 12.2146L100.223 12.2957L100.116 12.3853L100.005 12.475L99.9071 12.5731L99.8089 12.6841L99.7278 12.7823L99.6467 12.9018L99.5742 13.017L99.5101 13.1365L99.4461 13.2645L99.3992 13.3883L99.3565 13.5164L99.3181 13.6529L99.2925 13.7853L99.2754 13.9304L99.2669 14.0755V14.2206V14.3572L99.2754 14.4938L99.2925 14.6218L99.3181 14.7541L99.348 14.8822L99.3906 15.0102L99.4376 15.134L99.4803 15.2535L99.5443 15.3687L99.6083 15.4882L99.6809 15.5992L99.762 15.7059L99.8516 15.8041L99.9455 15.9065L100.044 16.0047L100.142 16.0943L100.244 16.1839L100.351 16.265L100.458 16.3461L100.569 16.4315L100.675 16.5126L100.795 16.5936L100.91 16.6662L101.038 16.7473L101.158 16.8199L101.281 16.901L101.418 16.9735L101.555 17.0461L101.691 17.1186L101.828 17.1912L101.973 17.2637L102.114 17.3363L102.25 17.396L102.395 17.4686L102.549 17.5412L102.848 17.6777L102.993 17.7503L103.147 17.8143L103.454 17.9594L103.62 18.032L103.774 18.1045L103.936 18.1771L104.098 18.2411L104.261 18.3137L104.423 18.382L104.585 18.4545L104.751 18.5271L104.914 18.5996L105.067 18.6807L105.229 18.7533L105.383 18.8344L105.537 18.9198L105.69 19.0008L105.835 19.0819L105.989 19.163L106.134 19.2527L106.279 19.3423L106.424 19.4319L106.57 19.5258L106.715 19.624L106.851 19.7136L106.996 19.8118L107.12 19.9142L107.257 20.0124L107.385 20.1234L107.509 20.2215L107.628 20.3368L107.748 20.4477L107.863 20.563L107.982 20.6825L108.089 20.802L108.2 20.9257L108.307 21.0538L108.405 21.1818L108.507 21.3141L108.597 21.4507L108.695 21.5873L108.785 21.7324L108.87 21.869L108.951 22.0141L109.024 22.1678L109.083 22.3129L109.147 22.4751L109.211 22.6372L109.258 22.7994L109.301 22.9702L109.348 23.1537L109.382 23.3329L109.412 23.525L109.438 23.7128L109.455 23.9134L109.476 24.1097L109.485 24.3189V24.5365V24.7457L109.476 24.9548L109.463 25.1597L109.446 25.3688L109.429 25.5694L109.404 25.7572L109.374 25.9493L109.34 26.1285L109.301 26.3206L109.267 26.4913L109.22 26.662L109.165 26.837L109.113 26.9992L109.049 27.1614L108.985 27.3236L108.921 27.4687L108.849 27.6224L108.776 27.776L108.695 27.9211L108.614 28.0577L108.533 28.1943L108.443 28.3266L108.354 28.4632L108.251 28.5912L108.153 28.7193L108.055 28.8345L107.944 28.9625L107.837 29.0692L107.718 29.1887L107.602 29.2955L107.483 29.3979L107.355 29.5046L107.231 29.6028L107.103 29.7052L106.966 29.7948L106.83 29.8844L106.685 29.9741L106.54 30.0552L106.399 30.1363L106.245 30.2088L106.087 30.2899L105.925 30.3539L105.763 30.4265L105.601 30.4905L105.43 30.5545L105.255 30.61L105.076 30.6612L104.896 30.7167L104.713 30.7637L104.525 30.8064L104.333 30.8533L104.145 30.8874L103.945 30.9259L103.753 30.96L103.556 30.9899L103.347 31.0155L103.147 31.0411L102.942 31.0624L102.733 31.0795L102.515 31.0966L102.306 31.1051L102.088 31.1137H101.862L101.644 31.1222H101.499L101.345 31.1137H101.2H101.055L100.923 31.1051H100.778L100.633 31.0966H100.496L100.359 31.088L100.223 31.0795L100.086 31.071L99.954 31.0624L99.8174 31.0539L99.6809 31.0326L99.5528 31.024L99.4291 31.007L99.2925 30.9984L99.1644 30.9813L99.0364 30.96L98.9126 30.9515L98.7931 30.9344L98.6693 30.9173L98.5498 30.896L98.4218 30.8704L98.3065 30.8533L98.187 30.8362L98.0718 30.8064L97.9523 30.7807L97.8328 30.7637L97.7261 30.7338L97.6194 30.7082L97.4999 30.6826L97.2822 30.6271L97.0645 30.5716L97.009 30.5545V27.187L97.056 27.1956L97.2096 27.2596L97.3718 27.3151L97.5255 27.3705L97.7005 27.4218L97.8627 27.4687L98.0419 27.5242L98.2169 27.5754L98.3065 27.5968L98.3962 27.6224L98.4943 27.648L98.584 27.6693L98.6779 27.6949L98.7675 27.712L98.8657 27.7291L99.0577 27.776L99.1559 27.7931L99.2455 27.8144L99.348 27.8315L99.4461 27.8486L99.5443 27.8656L99.6467 27.887L99.7449 27.9041L99.8431 27.9211L99.9455 27.9297L100.052 27.9467L100.15 27.9595L100.261 27.9766L100.359 27.9852L100.47 27.9937L100.569 28.0022L100.675 28.0108H100.778L100.884 28.0193L100.995 28.0278H101.102H101.2H101.311L101.418 28.0406L101.674 28.0278L101.909 28.0193L102.144 28.0108L102.378 27.9937L102.596 27.9681L102.814 27.9382L103.023 27.9041L103.219 27.8571L103.42 27.8144L103.607 27.7675L103.791 27.7035L103.97 27.6394L104.145 27.5669L104.307 27.4943L104.461 27.4132L104.615 27.3236L104.751 27.2254L104.884 27.123L105.012 27.0078L105.14 26.8883L105.246 26.773L105.349 26.6364L105.439 26.4999L105.52 26.3547L105.592 26.2011L105.656 26.0474L105.699 25.8853L105.746 25.7231L105.78 25.5523L105.801 25.3774L105.818 25.1981V25.0146V24.8737L105.81 24.7286L105.788 24.592L105.763 24.4554L105.737 24.3189L105.699 24.1823L105.656 24.0585L105.601 23.9305L105.537 23.8152L105.473 23.6957L105.4 23.5762L105.319 23.4695L105.238 23.3714L105.14 23.2604L105.05 23.1622L104.939 23.0726L104.841 22.9915L104.73 22.8976L104.623 22.8165L104.512 22.7354L104.406 22.6629L104.286 22.5818L104.171 22.5007L104.043 22.4281L103.919 22.347L103.791 22.2745L103.663 22.2019L103.526 22.1293L103.394 22.0568L103.258 21.9842L103.112 21.9202L102.967 21.8477Z" fill="white"/>
<path id="Vector_8" d="M97.9737 47.245C97.9097 47.3986 97.8115 47.4541 97.6835 47.4114C97.5512 47.3645 97.4317 47.2535 97.3207 47.07C97.2097 46.8864 97.1244 46.6688 97.0689 46.4084C97.0091 46.1481 97.0219 45.8835 97.0988 45.6103C97.1372 45.4652 97.3506 45.1835 97.7304 44.7609C98.1146 44.3384 98.6182 43.822 99.2413 43.2116C98.3962 43.4336 97.5426 43.7025 96.6847 44.0226C95.8269 44.3427 94.9861 44.7225 94.1708 45.1621C93.9745 45.2646 93.8635 45.2475 93.8294 45.1024C93.7953 44.9615 93.8251 44.7695 93.9062 44.5262C93.9916 44.2872 94.1239 44.0354 94.3074 43.775C94.491 43.5147 94.7044 43.3183 94.9519 43.1903C95.0671 43.1391 95.3062 43.0537 95.6647 42.9385C96.0232 42.8232 96.4628 42.6952 96.9792 42.5586C97.5 42.422 98.0847 42.2812 98.7334 42.1403C99.3822 41.9995 100.052 41.8672 100.744 41.752C101.354 41.1672 101.999 40.5612 102.673 39.938C103.347 39.3149 104.026 38.696 104.7 38.0857C105.375 37.4753 106.028 36.8906 106.659 36.3315C107.291 35.7724 107.867 35.2687 108.384 34.8206C108.904 34.3724 109.348 34.0011 109.719 33.7066C110.091 33.4164 110.347 33.2243 110.488 33.1304C110.658 33.0408 110.872 33.0152 111.132 33.0621C111.393 33.1091 111.627 33.1987 111.845 33.3353C112.058 33.4719 112.225 33.6298 112.34 33.8133C112.455 33.9969 112.464 34.1718 112.361 34.3383C112.323 34.3895 112.212 34.5858 112.028 34.923C111.845 35.2602 111.614 35.6913 111.337 36.2205C111.055 36.7455 110.752 37.3473 110.419 38.0131C110.087 38.6832 109.754 39.3704 109.416 40.0703C109.079 40.7703 108.759 41.4703 108.46 42.166C108.162 42.8617 107.901 43.5061 107.679 44.0951C107.457 44.6884 107.304 45.1963 107.21 45.6274C107.12 46.0584 107.112 46.3615 107.188 46.545C107.304 46.8054 107.295 46.959 107.159 47.0017C107.022 47.0486 106.839 47.0102 106.612 46.895C106.386 46.7755 106.156 46.6005 105.929 46.3572C105.703 46.1182 105.562 45.8322 105.511 45.5079C105.473 45.2475 105.571 44.8207 105.814 44.2317C106.053 43.6384 106.378 42.9726 106.779 42.2342C106.348 42.1958 105.682 42.2001 104.781 42.2513C103.876 42.3025 102.839 42.4391 101.67 42.6611C100.761 43.583 99.9712 44.4451 99.3011 45.2475C98.631 46.0456 98.1871 46.7115 97.9652 47.245M105.609 41.3379C105.767 41.3508 105.972 41.419 106.232 41.5428C106.493 41.6666 106.728 41.7946 106.937 41.9227C107.235 41.3764 107.556 40.813 107.893 40.2368C108.23 39.6563 108.567 39.0929 108.896 38.5381C109.229 37.9875 109.54 37.4625 109.843 36.9674C110.142 36.4723 110.407 36.0327 110.633 35.6529C110.859 35.2687 111.034 34.9614 111.162 34.7267C111.286 34.492 111.333 34.3554 111.307 34.317C111.282 34.2914 111.141 34.3639 110.889 34.5304C110.633 34.7011 110.304 34.9486 109.894 35.273C109.485 35.5974 109.007 35.99 108.46 36.4425C107.914 36.8991 107.338 37.3942 106.723 37.9363C106.113 38.4741 105.477 39.046 104.824 39.6435C104.167 40.2411 103.526 40.8386 102.903 41.4361C103.398 41.3849 103.868 41.3465 104.316 41.3294C104.764 41.3081 105.195 41.3123 105.614 41.3379" fill="#B72F34"/>
<path id="Vector_9" d="M114.692 38.548C114.863 38.3261 114.94 38.1212 114.927 37.9334C114.914 37.7456 114.816 37.6645 114.632 37.6901C114.346 37.7413 114.043 37.9163 113.715 38.2065C113.39 38.501 113.079 38.834 112.78 39.2095C112.481 39.5851 112.212 39.9693 111.969 40.3491C111.726 40.729 111.555 41.0405 111.453 41.2753C111.269 41.6936 111.171 42.0777 111.15 42.4277C111.128 42.7777 111.192 43.0465 111.333 43.2258C111.504 43.4349 111.794 43.4648 112.212 43.3154C112.626 43.1661 113.096 42.927 113.617 42.5941C114.137 42.2612 114.662 41.8814 115.196 41.4417C115.729 41.0064 116.19 40.5924 116.583 40.204C116.805 39.9821 117.01 39.8199 117.198 39.7174C117.385 39.615 117.53 39.5595 117.637 39.5595C117.744 39.5595 117.778 39.615 117.752 39.726C117.727 39.837 117.612 39.9949 117.402 40.204C117.027 40.5796 116.587 41.0192 116.088 41.5186C115.588 42.0179 115.085 42.496 114.577 42.9526C114.069 43.4093 113.587 43.8063 113.134 44.1434C112.678 44.4806 112.311 44.677 112.025 44.7282C111.739 44.7794 111.457 44.7367 111.175 44.5916C110.898 44.4507 110.65 44.2459 110.445 43.977C110.236 43.7124 110.078 43.388 109.967 43.0124C109.856 42.6368 109.827 42.2399 109.878 41.8216C109.903 41.5356 110.01 41.2155 110.189 40.857C110.373 40.4985 110.595 40.1314 110.864 39.7559C111.128 39.3803 111.431 39.0089 111.76 38.6462C112.093 38.2834 112.43 37.9505 112.776 37.6517C113.122 37.3529 113.463 37.1011 113.8 36.892C114.137 36.6828 114.436 36.5548 114.696 36.5036C114.812 36.478 114.948 36.478 115.106 36.5036C115.264 36.5292 115.413 36.5804 115.554 36.6615C115.695 36.7383 115.819 36.8493 115.917 36.9944C116.015 37.1395 116.062 37.306 116.062 37.5023C116.062 37.7627 115.981 38.087 115.819 38.4754C115.657 38.8638 115.469 39.2437 115.256 39.6065C115.042 39.9693 114.829 40.2851 114.62 40.554C114.41 40.8186 114.261 40.9595 114.171 40.9723C114.082 40.9851 113.996 40.9424 113.92 40.8442C113.843 40.7461 113.775 40.6308 113.715 40.4942C113.655 40.3577 113.621 40.2168 113.608 40.0632C113.595 39.9138 113.612 39.7943 113.668 39.7046C113.719 39.615 113.792 39.5168 113.881 39.4101C113.971 39.3077 114.069 39.201 114.176 39.0986L114.466 38.8083C114.556 38.7187 114.637 38.6334 114.701 38.5565" fill="#B72F34"/>
<path id="Vector_10" d="M123.347 39.5245C122.997 40.0709 122.677 40.5617 122.391 40.997C122.105 41.4324 121.871 41.8037 121.691 42.1067C121.508 42.414 121.384 42.6573 121.32 42.8366C121.256 43.0201 121.26 43.1311 121.337 43.1695C121.427 43.2207 121.615 43.1353 121.892 42.9049C122.174 42.6787 122.49 42.397 122.84 42.0683C123.19 41.7354 123.535 41.394 123.872 41.044C124.21 40.694 124.483 40.4123 124.692 40.2074C124.863 40.0367 125.038 39.9001 125.217 39.7977C125.4 39.6953 125.546 39.6398 125.656 39.6312C125.767 39.627 125.819 39.6654 125.814 39.7593C125.806 39.8489 125.708 40.0026 125.511 40.2074C125.225 40.4934 124.88 40.8775 124.479 41.3556C124.077 41.8378 123.676 42.3159 123.279 42.7896C122.882 43.2634 122.519 43.6817 122.195 44.0359C121.871 44.3944 121.636 44.5908 121.495 44.6292C121.299 44.6932 121.12 44.6932 120.957 44.6292C120.795 44.5651 120.654 44.4627 120.539 44.3261C120.42 44.1896 120.338 44.0274 120.283 43.8396C120.232 43.6518 120.219 43.4597 120.245 43.2634C120.257 43.1055 120.309 42.9219 120.398 42.7085C120.488 42.4951 120.595 42.2775 120.71 42.0641C120.825 41.8507 120.936 41.6501 121.043 41.458C121.145 41.2702 121.231 41.1251 121.299 41.0184C121.248 41.108 121.137 41.2617 120.966 41.4751C120.799 41.6885 120.59 41.9317 120.351 42.2049C120.112 42.4781 119.848 42.764 119.562 43.0628C119.276 43.3616 118.99 43.6304 118.704 43.8737C118.418 44.1127 118.145 44.3176 117.884 44.4798C117.624 44.642 117.402 44.7231 117.223 44.7231C117.014 44.7231 116.817 44.642 116.63 44.4798C116.442 44.3176 116.284 44.117 116.16 43.8737C116.036 43.6347 115.951 43.3786 115.895 43.1055C115.844 42.8323 115.848 42.5933 115.912 42.3842C115.976 42.1494 116.151 41.8336 116.429 41.4281C116.711 41.0269 117.044 40.5916 117.432 40.1306C117.82 39.6697 118.247 39.2044 118.708 38.735C119.169 38.2655 119.621 37.8472 120.065 37.4759C120.505 37.1045 120.919 36.8186 121.303 36.6094C121.687 36.4003 121.994 36.3235 122.229 36.3747C122.319 36.4003 122.426 36.4814 122.541 36.6094C122.656 36.7418 122.758 36.8997 122.844 37.096C122.929 37.2923 122.985 37.5143 123.01 37.7576C123.036 38.0051 123.002 38.2441 122.912 38.4789C123.096 38.5813 123.237 38.7435 123.339 38.9569C123.441 39.1703 123.441 39.3538 123.339 39.5117M122.268 37.796C122.11 37.7192 121.866 37.7789 121.525 37.9795C121.188 38.1801 120.812 38.4661 120.394 38.8374C119.976 39.2087 119.549 39.6227 119.109 40.0837C118.665 40.5446 118.281 40.9885 117.948 41.4196C117.615 41.8507 117.359 42.2305 117.18 42.572C116.997 42.9091 116.958 43.1396 117.065 43.2548C117.154 43.3701 117.368 43.3359 117.697 43.1481C118.029 42.9604 118.422 42.6659 118.875 42.2604C119.331 41.8592 119.822 41.3812 120.347 40.8263C120.872 40.2757 121.384 39.691 121.879 39.0807C122.046 38.7563 122.174 38.4746 122.259 38.2313C122.344 37.9923 122.349 37.8429 122.268 37.7917" fill="#B72F34"/>
<path id="Vector_11" d="M134.581 33.1655C134.683 33.0374 134.794 32.999 134.913 33.0588C135.033 33.1185 135.127 33.2167 135.208 33.3618C135.285 33.5069 135.332 33.6648 135.345 33.8398C135.357 34.0148 135.319 34.1599 135.229 34.2794C134.346 35.3593 133.518 36.4135 132.741 37.4464C131.969 38.4792 131.298 39.4097 130.731 40.2334C130.163 41.0572 129.724 41.7443 129.403 42.2906C129.083 42.8369 128.938 43.1656 128.964 43.2851C128.977 43.3491 129.053 43.3363 129.199 43.2467C129.339 43.157 129.523 43.0205 129.745 42.8369C129.967 42.6534 130.21 42.44 130.475 42.1925C130.739 41.9449 131.004 41.6974 131.264 41.4498C131.525 41.2023 131.768 40.9675 131.994 40.737C132.22 40.5108 132.4 40.3316 132.532 40.1993C132.698 40.0285 132.878 39.8962 133.07 39.7895C133.257 39.6871 133.407 39.6316 133.518 39.6231C133.629 39.6188 133.68 39.6572 133.671 39.7511C133.663 39.8408 133.556 39.9901 133.351 40.1993C133.065 40.4852 132.72 40.8694 132.318 41.3517C131.913 41.8339 131.52 42.312 131.128 42.7857C130.739 43.2595 130.377 43.6778 130.044 44.032C129.711 44.3905 129.48 44.5869 129.352 44.6253C129.156 44.6893 128.977 44.6893 128.814 44.6253C128.652 44.5612 128.511 44.4588 128.396 44.3222C128.281 44.1857 128.191 44.0235 128.132 43.8357C128.072 43.6479 128.055 43.4558 128.085 43.2595C128.11 43.1016 128.17 42.918 128.26 42.7046C128.349 42.4912 128.452 42.2736 128.563 42.0602C128.674 41.8467 128.785 41.6419 128.895 41.4541C129.006 41.2663 129.092 41.1212 129.16 41.0145C129.096 41.1041 128.994 41.2578 128.857 41.4712C128.721 41.6846 128.55 41.9278 128.349 42.201C128.149 42.4742 127.931 42.7601 127.696 43.0589C127.461 43.3576 127.222 43.6265 126.983 43.8698C126.744 44.1088 126.51 44.3137 126.279 44.4759C126.053 44.6381 125.84 44.7192 125.647 44.7192C125.438 44.7192 125.233 44.6423 125.024 44.4844C124.815 44.3265 124.636 44.143 124.478 43.921C124.32 43.6991 124.209 43.4601 124.137 43.1997C124.064 42.9394 124.064 42.7046 124.128 42.4955C124.192 42.2736 124.341 41.9663 124.576 41.5693C124.811 41.1724 125.093 40.7456 125.426 40.2846C125.758 39.8237 126.126 39.3542 126.535 38.8804C126.945 38.4067 127.359 37.9841 127.782 37.6128C128.204 37.2415 128.618 36.947 129.032 36.7251C129.442 36.5031 129.813 36.422 130.155 36.4732C130.283 36.4988 130.441 36.6226 130.624 36.8446C130.808 37.0665 130.927 37.3311 130.995 37.6427C131.7 36.772 132.361 35.9355 132.984 35.1373C133.607 34.3392 134.141 33.6776 134.585 33.1569M130.082 37.6598C129.924 37.6213 129.685 37.7195 129.361 37.9543C129.036 38.189 128.674 38.4963 128.277 38.8804C127.88 39.2646 127.478 39.6914 127.077 40.1694C126.676 40.6432 126.322 41.0998 126.015 41.5352C125.707 41.9705 125.481 42.3589 125.332 42.6961C125.182 43.0333 125.165 43.2638 125.28 43.379C125.408 43.507 125.639 43.4601 125.972 43.2339C126.305 43.0077 126.697 42.662 127.15 42.201C127.607 41.74 128.102 41.1852 128.644 40.545C129.181 39.9005 129.736 39.2304 130.313 38.5262C130.377 38.3042 130.394 38.1207 130.359 37.9713C130.325 37.822 130.231 37.7195 130.078 37.6683" fill="#B72F34"/>
<path id="Vector_12" d="M133.335 43.4972C133.45 43.6252 133.655 43.6636 133.95 43.6039C134.24 43.5441 134.577 43.4332 134.953 43.2624C135.328 43.0917 135.734 42.8783 136.173 42.618C136.609 42.3576 137.031 42.0845 137.441 41.7985C137.851 41.5125 138.231 41.2308 138.581 40.9491C138.93 40.6674 139.216 40.4199 139.438 40.198C139.622 40.0144 139.793 39.8821 139.955 39.7968C140.117 39.7114 140.245 39.673 140.343 39.6815C140.441 39.6901 140.488 39.737 140.488 39.8266C140.488 39.9163 140.411 40.04 140.254 40.198C139.746 40.7059 139.204 41.2266 138.623 41.7558C138.047 42.2893 137.471 42.7759 136.907 43.2198C136.34 43.6594 135.802 44.0222 135.29 44.2996C134.778 44.577 134.329 44.7179 133.954 44.7179C133.77 44.7179 133.57 44.6752 133.348 44.5898C133.126 44.5045 132.925 44.3764 132.742 44.2014C132.558 44.0264 132.409 43.8002 132.285 43.5185C132.161 43.2368 132.102 42.9039 132.102 42.5155C132.102 42.2552 132.208 41.9308 132.422 41.5424C132.635 41.154 132.912 40.7443 133.25 40.3132C133.587 39.8864 133.962 39.4553 134.381 39.0285C134.799 38.5974 135.209 38.2133 135.618 37.8676C136.028 37.5219 136.417 37.2444 136.779 37.031C137.142 36.8176 137.437 36.7109 137.659 36.7109C137.735 36.7109 137.851 36.7365 138 36.7878C138.149 36.839 138.295 36.9243 138.44 37.0396C138.58 37.1548 138.704 37.3127 138.802 37.5091C138.901 37.7054 138.93 37.9529 138.888 38.2517C138.849 38.5505 138.717 38.8706 138.499 39.2078C138.277 39.5449 138.013 39.8693 137.71 40.1852C137.403 40.4967 137.091 40.7784 136.775 41.0345C136.455 41.2863 136.186 41.4741 135.964 41.5894C135.589 41.8113 135.226 41.8796 134.88 41.7942C134.534 41.7089 134.257 41.5552 134.052 41.3375C133.715 41.8198 133.467 42.2594 133.309 42.6521C133.152 43.049 133.16 43.3307 133.331 43.5015M137.603 38.1578C137.501 38.0938 137.326 38.1237 137.087 38.256C136.848 38.384 136.579 38.5804 136.28 38.8407C135.981 39.1011 135.665 39.4041 135.332 39.7583C135 40.1083 134.692 40.4754 134.406 40.851C134.603 40.9406 134.825 40.9449 135.081 40.8595C135.332 40.7741 135.589 40.6418 135.849 40.4583C136.109 40.2748 136.357 40.0656 136.6 39.8224C136.839 39.5834 137.048 39.3443 137.223 39.1096C137.398 38.8749 137.522 38.67 137.595 38.495C137.667 38.32 137.667 38.2048 137.603 38.1536" fill="#B72F34"/>
<path id="Vector_13" d="M142.46 36.8717C142.55 36.7949 142.682 36.7479 142.849 36.7351C143.019 36.7223 143.177 36.7351 143.327 36.7863C143.476 36.8333 143.591 36.8973 143.677 36.9827C143.762 37.068 143.758 37.1662 143.668 37.2857C143.566 37.4308 143.399 37.64 143.173 37.9174C142.947 38.1991 142.699 38.5234 142.43 38.8948C142.166 39.2661 141.893 39.663 141.611 40.0941C141.329 40.5209 141.082 40.9477 140.86 41.3617C141.031 41.1526 141.235 40.905 141.474 40.6105C141.713 40.3203 141.969 40.0173 142.234 39.7057C142.499 39.3941 142.768 39.0868 143.041 38.7795C143.314 38.4722 143.574 38.1991 143.822 37.9515C144.069 37.704 144.291 37.4948 144.483 37.3284C144.68 37.1577 144.829 37.0638 144.932 37.0339C145.089 36.9955 145.23 37.0296 145.363 37.1321C145.491 37.2345 145.597 37.3711 145.674 37.5418C145.751 37.7125 145.806 37.879 145.841 38.0497C145.875 38.2204 145.871 38.3485 145.832 38.4381C145.794 38.5277 145.67 38.7368 145.461 39.0612C145.252 39.3856 145.025 39.7313 144.778 40.0941C144.492 40.5209 144.18 40.9861 143.843 41.477C144.599 40.6191 145.286 39.8465 145.909 39.1551C146.169 38.8692 146.434 38.5832 146.699 38.2972C146.963 38.0113 147.211 37.7509 147.428 37.5162C147.65 37.2814 147.842 37.0894 148.005 36.94C148.167 36.7906 148.282 36.701 148.346 36.6754C148.474 36.6242 148.606 36.6455 148.734 36.7437C148.862 36.8418 148.973 36.9699 149.067 37.1321C149.157 37.2942 149.208 37.4692 149.225 37.657C149.238 37.8448 149.2 38.007 149.11 38.1351C149.02 38.2503 148.875 38.4552 148.679 38.7411C148.483 39.0271 148.269 39.3557 148.034 39.727C147.8 40.0984 147.565 40.4868 147.322 40.888C147.083 41.2892 146.869 41.669 146.69 42.019C146.506 42.369 146.37 42.6678 146.272 42.9153C146.174 43.1628 146.152 43.3122 146.203 43.3634C146.242 43.4019 146.349 43.3634 146.524 43.2567C146.699 43.1458 146.912 42.9964 147.168 42.8086C147.42 42.6208 147.697 42.4031 147.996 42.1556C148.295 41.908 148.589 41.6648 148.875 41.4257C149.161 41.1867 149.426 40.9563 149.665 40.7343C149.904 40.5124 150.092 40.3374 150.22 40.2093C150.416 40.013 150.604 39.8679 150.783 39.7697C150.967 39.6716 151.107 39.6289 151.201 39.6331C151.295 39.6374 151.342 39.6929 151.329 39.7868C151.317 39.885 151.218 40.0258 151.039 40.2051C150.924 40.3203 150.745 40.5124 150.501 40.7813C150.262 41.0459 149.989 41.3489 149.682 41.6861C149.375 42.0233 149.059 42.3733 148.726 42.7275C148.393 43.086 148.077 43.4147 147.77 43.7134C147.463 44.0122 147.194 44.2555 146.95 44.4433C146.711 44.6311 146.536 44.725 146.434 44.725C146.263 44.725 146.092 44.6737 145.917 44.5713C145.742 44.4689 145.585 44.3323 145.448 44.1616C145.311 43.9909 145.209 43.7988 145.145 43.5768C145.081 43.3549 145.068 43.133 145.107 42.9153C145.171 42.5909 145.316 42.2281 145.546 41.8227C145.772 41.4215 146.016 41.0501 146.276 40.7087C146.562 40.3075 146.882 39.902 147.232 39.5008C147.117 39.5521 146.929 39.6844 146.664 39.8892C146.404 40.0984 146.11 40.3545 145.777 40.6618C145.444 40.9648 145.098 41.2934 144.735 41.6477C144.372 41.9977 144.027 42.3391 143.702 42.672C143.378 43.0049 143.092 43.3037 142.844 43.5768C142.597 43.85 142.43 44.0506 142.337 44.1829C142.179 44.3921 142.046 44.4731 141.935 44.4347C141.824 44.3963 141.739 44.3067 141.684 44.1616C141.624 44.0165 141.59 43.8543 141.577 43.6622C141.564 43.4744 141.59 43.3293 141.654 43.2226C141.692 43.1586 141.777 43.0348 141.905 42.8513C142.034 42.672 142.187 42.4501 142.362 42.1983C142.537 41.9422 142.729 41.669 142.938 41.3703C143.147 41.0715 143.344 40.7813 143.532 40.5038C143.719 40.2264 143.894 39.9661 144.048 39.7228C144.206 39.4838 144.325 39.2917 144.419 39.1466C143.911 39.5777 143.378 40.0557 142.81 40.5892C142.247 41.1227 141.709 41.6434 141.201 42.1598C140.693 42.6763 140.249 43.15 139.865 43.5939C139.481 44.0378 139.212 44.3792 139.054 44.6268C138.99 44.7292 138.901 44.7676 138.79 44.7335C138.679 44.6994 138.576 44.6311 138.487 44.5286C138.397 44.4262 138.325 44.3024 138.273 44.1573C138.222 44.0122 138.226 43.8799 138.29 43.7476C138.329 43.6707 138.436 43.4659 138.611 43.133C138.786 42.8001 138.999 42.4031 139.242 41.9336C139.49 41.4642 139.767 40.9648 140.07 40.4313C140.377 39.8978 140.676 39.3941 140.966 38.9118C141.257 38.4295 141.534 38.007 141.794 37.6357C142.055 37.2644 142.268 37.0083 142.439 36.8632" fill="#B72F34"/>
<path id="Vector_14" d="M154.12 36.438C154.21 36.3483 154.334 36.3099 154.492 36.3227C154.645 36.3355 154.795 36.3825 154.931 36.4593C155.068 36.5361 155.174 36.6343 155.251 36.7495C155.328 36.869 155.337 36.9715 155.273 37.0611C155.119 37.2702 154.88 37.5562 154.56 37.919C154.24 38.2818 153.898 38.6744 153.536 39.097C153.173 39.5195 152.801 39.9506 152.426 40.3945C152.05 40.8383 151.726 41.2481 151.448 41.6237C151.175 41.9993 150.97 42.3151 150.834 42.5712C150.697 42.823 150.689 42.9766 150.804 43.0279C150.868 43.0535 151.047 42.9553 151.342 42.7376C151.632 42.5157 151.986 42.2212 152.396 41.8499C152.806 41.4786 153.245 41.0688 153.723 40.6207C154.197 40.1725 154.658 39.7329 155.098 39.3061C155.542 38.875 155.934 38.4909 156.288 38.1452C156.638 37.7995 156.899 37.5519 157.069 37.394C157.159 37.3044 157.279 37.3001 157.419 37.3855C157.56 37.4708 157.684 37.5903 157.791 37.7483C157.893 37.9062 157.962 38.0769 157.996 38.2647C158.03 38.4525 157.987 38.6061 157.868 38.7214C157.219 39.3829 156.579 40.1085 155.956 40.8938C155.332 41.6792 154.731 42.4986 154.15 43.3522C153.57 44.2059 153.028 45.068 152.511 45.9472C151.999 46.8265 151.534 47.6843 151.116 48.5294C151.051 48.6447 150.958 48.6831 150.834 48.6447C150.71 48.6062 150.595 48.5166 150.492 48.3715C150.39 48.2264 150.305 48.0343 150.249 47.7953C150.189 47.5563 150.202 47.2831 150.279 46.9844C150.33 46.8136 150.501 46.5149 150.787 46.0881C151.073 45.657 151.419 45.179 151.82 44.6455C152.221 44.112 152.656 43.5528 153.117 42.9681C153.578 42.3834 154.009 41.8456 154.415 41.3505C154.816 40.8554 155.162 40.4414 155.448 40.1042C155.734 39.7671 155.896 39.5707 155.934 39.5195C155.802 39.6347 155.614 39.8353 155.358 40.1128C155.106 40.3902 154.816 40.7103 154.492 41.0688C154.167 41.4273 153.83 41.7987 153.476 42.1913C153.126 42.5797 152.789 42.934 152.473 43.2541C152.153 43.5742 151.867 43.8345 151.615 44.0437C151.363 44.2528 151.175 44.3552 151.06 44.3552C150.876 44.3552 150.714 44.2827 150.561 44.1418C150.411 44.001 150.296 43.8047 150.211 43.5571C150.125 43.3096 150.083 43.0193 150.074 42.6779C150.066 42.3407 150.117 41.9822 150.219 41.6066C150.283 41.3718 150.462 41.0389 150.757 40.6036C151.051 40.1683 151.389 39.6988 151.773 39.1909C152.157 38.683 152.558 38.1836 152.981 37.6885C153.403 37.1934 153.783 36.7794 154.12 36.438Z" fill="#B72F34"/>
<path id="Vector_15" fill-rule="evenodd" clip-rule="evenodd" d="M37.2817 5.90625L37.2561 34.1524L28.8906 25.1894L37.2817 5.90625Z" fill="#B72F34"/>
<path id="Vector_16" fill-rule="evenodd" clip-rule="evenodd" d="M37.2813 5.90625L16.6152 25.1809L28.8902 25.1894L37.2813 5.90625Z" fill="#EC2027"/>
<path id="Vector_17" d="M40.3589 3.02607L39.4797 2.44134V2.43707L41.1442 1.42981L39.2321 1.81393L39.2279 1.80967L39.4754 0.751182L38.8864 1.66028L37.8791 0L38.2633 1.90356L37.2133 1.64748L38.1096 2.24074L38.1139 2.25355L36.4493 3.26081L38.3614 2.87668L38.3657 2.89376L38.131 3.90529L38.6858 3.05168L38.7114 3.03887L39.7144 4.69062L39.3303 2.79559L39.3644 2.78279L40.3589 3.02607Z" fill="#A18043"/>
<path id="Vector_18" fill-rule="evenodd" clip-rule="evenodd" d="M53.901 22.9588C55.1132 22.532 55.9753 21.8278 56.5174 21.2217C57.7124 19.9071 58.3441 18.0804 58.3441 16.0104C58.3441 13.9404 57.7124 12.0837 56.5174 10.7692C55.604 9.72776 53.8669 8.51562 50.8792 8.51562H44.1826V11.6868C45.6679 14.0684 46.5301 16.8811 46.5301 19.8986C46.5301 22.9161 45.6679 25.7288 44.1826 28.1104V31.1194H47.7123V23.4752H50.2988L56.0009 31.1194H59.9916L53.901 22.9588ZM47.7123 20.3083V11.7124H50.8792C52.3475 11.7124 53.4401 12.1093 54.1486 12.9075C54.9979 13.8208 55.1516 15.097 55.1516 16.0104C55.1516 16.9237 54.9979 18.1743 54.1486 19.0877C53.4444 19.8815 52.3475 20.3083 50.8792 20.3083H47.7123Z" fill="white"/>
<path id="Vector_19" fill-rule="evenodd" clip-rule="evenodd" d="M20.2823 19.6278C20.389 13.8062 25.1351 9.11983 30.9824 9.11983C31.1958 9.11983 31.4092 9.12837 31.6183 9.14117L34.8322 6.16632C33.6072 5.82061 32.3183 5.63281 30.9824 5.63281C23.1462 5.63281 16.791 11.988 16.791 19.8242C16.791 20.776 16.8849 21.7064 17.0642 22.607L20.2823 19.6278Z" fill="white"/>
<path id="Vector_20" fill-rule="evenodd" clip-rule="evenodd" d="M38.7541 7.95312L38.7327 12.4474C40.5595 14.368 41.6863 16.963 41.6863 19.8269C41.6863 22.6908 40.5296 25.3584 38.6559 27.2833L38.6346 31.7733C42.5655 29.2508 45.1733 24.8419 45.1733 19.8227C45.1733 14.8034 42.621 10.4884 38.7541 7.95312Z" fill="white"/>
<path id="Vector_21" fill-rule="evenodd" clip-rule="evenodd" d="M31.8909 30.487C31.5922 30.5126 31.2848 30.5296 30.9818 30.5296C27.6399 30.5296 24.6608 28.9974 22.6975 26.603L18.502 26.5859C20.9049 31.0119 25.5912 34.0209 30.9861 34.0209C32.2708 34.0209 33.5128 33.8459 34.6908 33.5301L31.8952 30.4955L31.8909 30.487Z" fill="white"/>
<path id="Vector_22" fill-rule="evenodd" clip-rule="evenodd" d="M136.331 31.1357H140.176L130.428 8.52344L120.646 31.1357H124.529C125.626 28.3572 126.318 26.6201 126.949 25.0366H133.906C134.542 26.6244 135.234 28.3657 136.331 31.1357ZM128.213 21.8783C128.78 20.4613 129.459 18.7668 130.428 16.3298C131.397 18.7583 132.075 20.4527 132.643 21.8783H128.213Z" fill="white"/>
</g>
<defs>
<clipPath id="clip0_3165_882">
<rect width="158" height="48.6646" fill="white"/>
</clipPath>
</defs>
</svg>
